<svg width="48" height="26" viewBox="0 0 48 26" fill="none" xmlns="http://www.w3.org/2000/svg">
<path d="M0 11.9999C0 5.37282 5.37232 0.000488281 11.9994 0.000488281H35.9983C42.6254 0.000488281 47.9977 5.37282 47.9977 11.9999C47.9977 18.627 42.6254 23.9993 35.9983 23.9993H11.9994C5.37233 23.9993 0 18.627 0 11.9999Z" fill="#F9C20A"/>
<g filter="url(#filter0_dd_102_6278)">
<path d="M23.999 12C23.999 6.47715 28.4762 2 33.999 2C39.5219 2 43.999 6.47715 43.999 12C43.999 17.5228 39.5219 22 33.999 22C28.4762 22 23.999 17.5228 23.999 12Z" fill="white"/>
</g>
<defs>
<filter id="filter0_dd_102_6278" x="20.999" y="0" width="26" height="26" filterUnits="userSpaceOnUse" color-interpolation-filters="sRGB">
<feFlood flood-opacity="0" result="BackgroundImageFix"/>
<feColorMatrix in="SourceAlpha" type="matrix" values="0 0 0 0 0 0 0 0 0 0 0 0 0 0 0 0 0 0 127 0" result="hardAlpha"/>
<feMorphology radius="1" operator="erode" in="SourceAlpha" result="effect1_dropShadow_102_6278"/>
<feOffset dy="1"/>
<feGaussianBlur stdDeviation="1"/>
<feComposite in2="hardAlpha" operator="out"/>
<feColorMatrix type="matrix" values="0 0 0 0 0 0 0 0 0 0 0 0 0 0 0 0 0 0 0.1 0"/>
<feBlend mode="normal" in2="BackgroundImageFix" result="effect1_dropShadow_102_6278"/>
<feColorMatrix in="SourceAlpha" type="matrix" values="0 0 0 0 0 0 0 0 0 0 0 0 0 0 0 0 0 0 127 0" result="hardAlpha"/>
<feOffset dy="1"/>
<feGaussianBlur stdDeviation="1.5"/>
<feComposite in2="hardAlpha" operator="out"/>
<feColorMatrix type="matrix" values="0 0 0 0 0 0 0 0 0 0 0 0 0 0 0 0 0 0 0.1 0"/>
<feBlend mode="normal" in2="effect1_dropShadow_102_6278" result="effect2_dropShadow_102_6278"/>
<feBlend mode="normal" in="SourceGraphic" in2="effect2_dropShadow_102_6278" result="shape"/>
</filter>
</defs>
</svg>
