<svg width="16" height="16" viewBox="0 0 16 16" fill="none" xmlns="http://www.w3.org/2000/svg">
<g clip-path="url(#clip0_123_7473)">
<path d="M14.5308 6.66504C14.8352 8.15892 14.6182 9.71201 13.9161 11.0653C13.214 12.4186 12.0692 13.4903 10.6726 14.1017C9.27598 14.713 7.71197 14.8272 6.2414 14.425C4.77083 14.0228 3.48258 13.1286 2.5915 11.8915C1.70041 10.6545 1.26034 9.14933 1.34469 7.62709C1.42903 6.10485 2.03268 4.65752 3.05498 3.52649C4.07728 2.39545 5.45642 1.64906 6.96243 1.41179C8.46843 1.17452 10.0103 1.46072 11.3308 2.22265" stroke="white" stroke-width="1.33305" stroke-linecap="round" stroke-linejoin="round"/>
<path d="M5.99854 7.33169L7.99811 9.33127L14.6634 2.66602" stroke="white" stroke-width="1.33305" stroke-linecap="round" stroke-linejoin="round"/>
</g>
<defs>
<clipPath id="clip0_123_7473">
<rect width="15.9966" height="15.9966" fill="white"/>
</clipPath>
</defs>
</svg>
